<?xml version="1.0" encoding="UTF-8"?>
<!DOCTYPE svg PUBLIC "-//W3C//DTD SVG 1.1//EN" "http://www.w3.org/Graphics/SVG/1.1/DTD/svg11.dtd">
<svg xmlns="http://www.w3.org/2000/svg" version="1.1" width="773px" height="812px" style="shape-rendering:geometricPrecision; text-rendering:geometricPrecision; image-rendering:optimizeQuality; fill-rule:evenodd; clip-rule:evenodd" xmlns:xlink="http://www.w3.org/1999/xlink">
<g><path style="opacity:0.99" fill="#fefffe" d="M 371.5,-0.5 C 372.5,-0.5 373.5,-0.5 374.5,-0.5C 425.437,29.3068 476.437,59.1401 527.5,89C 476.16,119.339 424.494,149.172 372.5,178.5C 371.501,164.516 371.167,150.516 371.5,136.5C 274.537,143.546 198.703,186.879 144,266.5C 92.4375,349.566 83.1042,437.233 116,529.5C 144.93,600.538 193.764,653.038 262.5,687C 360.385,729.646 454.718,722.979 545.5,667C 635.054,603.724 678.22,516.891 675,406.5C 672.608,376.195 666.274,346.862 656,318.5C 685.492,306.446 715.158,294.779 745,283.5C 747.748,287.048 749.748,291.048 751,295.5C 762.157,327.775 769.323,360.775 772.5,394.5C 772.5,415.167 772.5,435.833 772.5,456.5C 758.113,586.605 696.113,686.771 586.5,757C 534.496,787.724 478.496,805.891 418.5,811.5C 396.5,811.5 374.5,811.5 352.5,811.5C 226.186,796.921 128.019,736.921 58,631.5C 24.1622,576.487 4.66215,516.82 -0.5,452.5C -0.5,433.833 -0.5,415.167 -0.5,396.5C 10.2782,282.758 59.9449,190.258 148.5,119C 214.176,68.9349 288.51,42.1015 371.5,38.5C 371.5,25.5 371.5,12.5 371.5,-0.5 Z"/></g>
<g><path style="opacity:0.988" fill="#fefffe" d="M 276.5,264.5 C 350.833,264.5 425.167,264.5 499.5,264.5C 499.5,285.833 499.5,307.167 499.5,328.5C 452.5,328.5 405.5,328.5 358.5,328.5C 357.644,349.154 357.311,369.821 357.5,390.5C 403.833,390.5 450.167,390.5 496.5,390.5C 496.423,411.505 496.09,432.505 495.5,453.5C 448.833,453.5 402.167,453.5 355.5,453.5C 355.78,476.189 355.447,498.855 354.5,521.5C 402.167,521.5 449.833,521.5 497.5,521.5C 497.459,542.839 497.126,564.172 496.5,585.5C 421.167,585.5 345.833,585.5 270.5,585.5C 272.22,478.483 274.22,371.483 276.5,264.5 Z"/></g>
</svg>
